{
  "accessors": [
    {
      "bufferView": 0,
      "byteOffset": 0,
      "count": 66,
      "componentType": 5126,
      "type": "VEC3",
      "min": [
        -11.814403533935547,
        -9.455307006835938,
        -6.7586212158203125
      ],
      "max": [
        11.949405670166016,
        9.483903884887695,
        6.525722503662109
      ],
      "name": "crash.mesh_pos"
    },
    {
      "bufferView": 0,
      "byteOffset": 792,
      "count": 66,
      "componentType": 5126,
      "type": "VEC3",
      "min": [
        -0.99661785364151,
        -0.707054615020752,
        -0.707054615020752
      ],
      "max": [
        0.9999396800994873,
        0.7068143486976624,
        0.7068143486976624
      ],
      "name": "crash.mesh_norm"
    },
    {
      "bufferView": 1,
      "byteOffset": 0,
      "count": 66,
      "componentType": 5126,
      "type": "VEC2",
      "min": [
        0.6311158537864685,
        0.36922621726989746
      ],
      "max": [
        1.0003999471664429,
        0.7397028803825378
      ],
      "name": "crash.mesh_uv"
    },
    {
      "bufferView": 2,
      "byteOffset": 0,
      "count": 312,
      "componentType": 5123,
      "type": "SCALAR",
      "min": [
        0
      ],
      "max": [
        65
      ],
      "name": "crash.mesh_face"
    },
    {
      "bufferView": 0,
      "byteOffset": 1584,
      "count": 65,
      "componentType": 5126,
      "type": "VEC3",
      "min": [
        -87.92916870117188,
        -17.788429260253906,
        40.58313751220703
      ],
      "max": [
        -65.744384765625,
        3.684478759765625,
        45.75480651855469
      ],
      "name": "hat.mesh_pos"
    },
    {
      "bufferView": 0,
      "byteOffset": 2364,
      "count": 65,
      "componentType": 5126,
      "type": "VEC3",
      "min": [
        -0.9999697208404541,
        -0.2217039167881012,
        -0.2217039167881012
      ],
      "max": [
        -0.9495760798454285,
        0.04780001938343048,
        0.04780001938343048
      ],
      "name": "hat.mesh_norm"
    },
    {
      "bufferView": 1,
      "byteOffset": 528,
      "count": 65,
      "componentType": 5126,
      "type": "VEC2",
      "min": [
        0.6311158537864685,
        0.36922621726989746
      ],
      "max": [
        1.0003999471664429,
        0.7397028803825378
      ],
      "name": "hat.mesh_uv"
    },
    {
      "bufferView": 2,
      "byteOffset": 624,
      "count": 306,
      "componentType": 5123,
      "type": "SCALAR",
      "min": [
        0
      ],
      "max": [
        64
      ],
      "name": "hat.mesh_face"
    },
    {
      "bufferView": 0,
      "byteOffset": 3144,
      "count": 568,
      "componentType": 5126,
      "type": "VEC3",
      "min": [
        -48.472660064697266,
        -2.4988484382629395,
        0.7307719588279724
      ],
      "max": [
        -1.1490246057510376,
        40.3971061706543,
        48.24400329589844
      ],
      "name": "kick.mesh_pos"
    },
    {
      "bufferView": 0,
      "byteOffset": 9960,
      "count": 568,
      "componentType": 5126,
      "type": "VEC3",
      "min": [
        -0.9999454021453857,
        -0.17178954184055328,
        -0.17178954184055328
      ],
      "max": [
        -0.026661541312932968,
        0.7068554162979126,
        0.7068554162979126
      ],
      "name": "kick.mesh_norm"
    },
    {
      "bufferView": 1,
      "byteOffset": 1048,
      "count": 568,
      "componentType": 5126,
      "type": "VEC2",
      "min": [
        0.0024565085768699646,
        -0.0020979642868041992
      ],
      "max": [
        0.993895947933197,
        0.9942209720611572
      ],
      "name": "kick.mesh_uv"
    },
    {
      "bufferView": 2,
      "byteOffset": 1236,
      "count": 1947,
      "componentType": 5123,
      "type": "SCALAR",
      "min": [
        0
      ],
      "max": [
        567
      ],
      "name": "kick.mesh_face"
    },
    {
      "bufferView": 0,
      "byteOffset": 16776,
      "count": 945,
      "componentType": 5126,
      "type": "VEC3",
      "min": [
        -87.37248992919922,
        -33.74351501464844,
        -0.2177409529685974
      ],
      "max": [
        15.505243301391602,
        35.89942169189453,
        66.86614990234375
      ],
      "name": "kit.mesh_pos"
    },
    {
      "bufferView": 0,
      "byteOffset": 28116,
      "count": 945,
      "componentType": 5126,
      "type": "VEC3",
      "min": [
        -0.9999992847442627,
        -0.7069576978683472,
        -0.7069576978683472
      ],
      "max": [
        0.8818340301513672,
        0.7070713043212891,
        0.7070713043212891
      ],
      "name": "kit.mesh_norm"
    },
    {
      "bufferView": 1,
      "byteOffset": 5592,
      "count": 945,
      "componentType": 5126,
      "type": "VEC2",
      "min": [
        0.0024565085768699646,
        -0.0020979642868041992
      ],
      "max": [
        1.0003999471664429,
        0.9944109320640564
      ],
      "name": "kit.mesh_uv"
    },
    {
      "bufferView": 2,
      "byteOffset": 5130,
      "count": 3399,
      "componentType": 5123,
      "type": "SCALAR",
      "min": [
        0
      ],
      "max": [
        944
      ],
      "name": "kit.mesh_face"
    },
    {
      "bufferView": 0,
      "byteOffset": 39456,
      "count": 494,
      "componentType": 5126,
      "type": "VEC3",
      "min": [
        -69.24497985839844,
        -11.221542358398438,
        25.3807315826416
      ],
      "max": [
        -45.22776794433594,
        12.872846603393555,
        37.2669792175293
      ],
      "name": "snare.mesh_pos"
    },
    {
      "bufferView": 0,
      "byteOffset": 45384,
      "count": 494,
      "componentType": 5126,
      "type": "VEC3",
      "min": [
        -1.0,
        -0.1930866688489914,
        -0.1930866688489914
      ],
      "max": [
        -0.9490200281143188,
        0.222891166806221,
        0.222891166806221
      ],
      "name": "snare.mesh_norm"
    },
    {
      "bufferView": 1,
      "byteOffset": 13152,
      "count": 494,
      "componentType": 5126,
      "type": "VEC2",
      "min": [
        0.0024565085768699646,
        -0.0020979642868041992
      ],
      "max": [
        0.993895947933197,
        0.9942209720611572
      ],
      "name": "snare.mesh_uv"
    },
    {
      "bufferView": 2,
      "byteOffset": 11928,
      "count": 1941,
      "componentType": 5123,
      "type": "SCALAR",
      "min": [
        0
      ],
      "max": [
        493
      ],
      "name": "snare.mesh_face"
    },
    {
      "bufferView": 0,
      "byteOffset": 51312,
      "count": 506,
      "componentType": 5126,
      "type": "VEC3",
      "min": [
        -1.4638280868530273,
        -22.252269744873047,
        -8.013084411621094
      ],
      "max": [
        30.19532585144043,
        7.041280746459961,
        21.721683502197266
      ],
      "name": "tom.mesh_pos"
    },
    {
      "bufferView": 0,
      "byteOffset": 57384,
      "count": 506,
      "componentType": 5126,
      "type": "VEC3",
      "min": [
        -0.5824843645095825,
        -0.7044354677200317,
        -0.7044354677200317
      ],
      "max": [
        0.9999943971633911,
        0.7069645524024963,
        0.7069645524024963
      ],
      "name": "tom.mesh_norm"
    },
    {
      "bufferView": 1,
      "byteOffset": 17104,
      "count": 506,
      "componentType": 5126,
      "type": "VEC2",
      "min": [
        0.0024565085768699646,
        -0.0020979642868041992
      ],
      "max": [
        0.993895947933197,
        0.9942209720611572
      ],
      "name": "tom.mesh_uv"
    },
    {
      "bufferView": 2,
      "byteOffset": 15810,
      "count": 1959,
      "componentType": 5123,
      "type": "SCALAR",
      "min": [
        0
      ],
      "max": [
        505
      ],
      "name": "tom.mesh_face"
    },
    {
      "bufferView": 3,
      "byteOffset": 0,
      "count": 2,
      "componentType": 5126,
      "type": "SCALAR",
      "min": [
        0.0
      ],
      "max": [
        1.0
      ],
      "name": "crash.tnm_translation_input"
    },
    {
      "bufferView": 0,
      "byteOffset": 63456,
      "count": 2,
      "componentType": 5126,
      "type": "VEC3",
      "min": [
        -20.468168258666992,
        48.589046478271484,
        48.02666091918945
      ],
      "max": [
        -20.468168258666992,
        48.589046478271484,
        48.02666091918945
      ],
      "name": "crash.tnm_translation_output"
    },
    {
      "bufferView": 3,
      "byteOffset": 8,
      "count": 15,
      "componentType": 5126,
      "type": "SCALAR",
      "min": [
        0.0
      ],
      "max": [
        100.0
      ],
      "name": "crash.tnm_rotation_input"
    },
    {
      "bufferView": 4,
      "byteOffset": 0,
      "count": 15,
      "componentType": 5126,
      "type": "VEC4",
      "min": [
        -0.21817860007286072,
        -0.010635961778461933,
        0.047515202313661575,
        -0.9988138675689697
      ],
      "max": [
        0.06107442080974579,
        0.0029773095156997442,
        0.048691052943468094,
        -0.9746934175491333
      ],
      "name": "crash.tnm_rotation_output"
    },
    {
      "bufferView": 3,
      "byteOffset": 68,
      "count": 1,
      "componentType": 5126,
      "type": "SCALAR",
      "min": [
        0.0
      ],
      "max": [
        0.0
      ],
      "name": "crash.tnm_scale_input"
    },
    {
      "bufferView": 0,
      "byteOffset": 63480,
      "count": 1,
      "componentType": 5126,
      "type": "VEC3",
      "min": [
        1.000183343887329,
        1.000183343887329,
        1.0
      ],
      "max": [
        1.000183343887329,
        1.000183343887329,
        1.0
      ],
      "name": "crash.tnm_scale_output"
    },
    {
      "bufferView": 3,
      "byteOffset": 72,
      "count": 12,
      "componentType": 5126,
      "type": "SCALAR",
      "min": [
        0.0
      ],
      "max": [
        100.0
      ],
      "name": "hat.tnm_translation_input"
    },
    {
      "bufferView": 0,
      "byteOffset": 63492,
      "count": 12,
      "componentType": 5126,
      "type": "VEC3",
      "min": [
        30.93973731994629,
        38.36954879760742,
        -0.3783780038356781
      ],
      "max": [
        30.93973731994629,
        38.36954879760742,
        0.6540840268135071
      ],
      "name": "hat.tnm_translation_output"
    },
    {
      "bufferView": 3,
      "byteOffset": 120,
      "count": 4,
      "componentType": 5126,
      "type": "SCALAR",
      "min": [
        0.0
      ],
      "max": [
        100.0
      ],
      "name": "kick.tnm_translation_input"
    },
    {
      "bufferView": 0,
      "byteOffset": 63636,
      "count": 4,
      "componentType": 5126,
      "type": "VEC3",
      "min": [
        30.93973731994629,
        38.34149169921875,
        0.0
      ],
      "max": [
        31.330162048339844,
        38.36954879760742,
        0.0
      ],
      "name": "kick.tnm_translation_output"
    }
  ],
  "animations": [
    {
      "channels": [
        {
          "sampler": 0,
          "target": {
            "node": 3,
            "path": "translation"
          }
        },
        {
          "sampler": 1,
          "target": {
            "node": 3,
            "path": "rotation"
          }
        },
        {
          "sampler": 2,
          "target": {
            "node": 3,
            "path": "scale"
          }
        }
      ],
      "name": "crash.grp",
      "samplers": [
        {
          "input": 24,
          "interpolation": "LINEAR",
          "output": 25
        },
        {
          "input": 26,
          "interpolation": "LINEAR",
          "output": 27
        },
        {
          "input": 28,
          "interpolation": "LINEAR",
          "output": 29
        }
      ]
    },
    {
      "channels": [
        {
          "sampler": 0,
          "target": {
            "node": 4,
            "path": "translation"
          }
        }
      ],
      "name": "hat.grp",
      "samplers": [
        {
          "input": 30,
          "interpolation": "LINEAR",
          "output": 31
        }
      ]
    },
    {
      "channels": [
        {
          "sampler": 0,
          "target": {
            "node": 5,
            "path": "translation"
          }
        }
      ],
      "name": "kick.grp",
      "samplers": [
        {
          "input": 32,
          "interpolation": "LINEAR",
          "output": 33
        }
      ]
    }
  ],
  "asset": {
    "generator": "grim v0.1.0",
    "version": "2.0"
  },
  "buffers": [
    {
      "byteLength": 104940,
      "uri": "dw_battle_drums.bin"
    }
  ],
  "bufferViews": [
    {
      "buffer": 0,
      "byteLength": 63684,
      "byteOffset": 0,
      "byteStride": 12
    },
    {
      "buffer": 0,
      "byteLength": 21152,
      "byteOffset": 63684,
      "byteStride": 8
    },
    {
      "buffer": 0,
      "byteLength": 19728,
      "byteOffset": 84836
    },
    {
      "buffer": 0,
      "byteLength": 136,
      "byteOffset": 104564,
      "byteStride": 4
    },
    {
      "buffer": 0,
      "byteLength": 240,
      "byteOffset": 104700,
      "byteStride": 16
    }
  ],
  "scene": 0,
  "images": [
    {
      "mimeType": "image/png",
      "name": "drums_sparkle_white.png",
      "uri": "data:image/png;base64,"
    },
    {
      "mimeType": "image/png",
      "name": "drums_sparkle_white_normal.png",
      "uri": "data:image/png;base64,"
    },
    {
      "mimeType": "image/png",
      "name": "drums_sparkle_white_specular.png",
      "uri": "data:image/png;base64,"
    }
  ],
  "materials": [
    {
      "alphaMode": "MASK",
      "doubleSided": true,
      "name": "11 - Default.mat",
      "pbrMetallicRoughness": {
        "baseColorFactor": [
          1.0,
          1.0,
          1.0,
          1.0
        ],
        "baseColorTexture": {
          "index": 0,
          "texCoord": 0
        },
        "metallicFactor": 1.0,
        "roughnessFactor": 1.0
      },
      "emissiveFactor": [
        0.0,
        0.0,
        0.0
      ]
    }
  ],
  "meshes": [
    {
      "name": "crash.mesh",
      "primitives": [
        {
          "attributes": {
            "POSITION": 0,
            "TEXCOORD_0": 2,
            "NORMAL": 1
          },
          "indices": 3,
          "material": 0
        }
      ]
    },
    {
      "name": "hat.mesh",
      "primitives": [
        {
          "attributes": {
            "POSITION": 4,
            "NORMAL": 5,
            "TEXCOORD_0": 6
          },
          "indices": 7,
          "material": 0
        }
      ]
    },
    {
      "name": "kick.mesh",
      "primitives": [
        {
          "attributes": {
            "TEXCOORD_0": 10,
            "POSITION": 8,
            "NORMAL": 9
          },
          "indices": 11,
          "material": 0
        }
      ]
    },
    {
      "name": "kit.mesh",
      "primitives": [
        {
          "attributes": {
            "TEXCOORD_0": 14,
            "POSITION": 12,
            "NORMAL": 13
          },
          "indices": 15,
          "material": 0
        }
      ]
    },
    {
      "name": "snare.mesh",
      "primitives": [
        {
          "attributes": {
            "POSITION": 16,
            "TEXCOORD_0": 18,
            "NORMAL": 17
          },
          "indices": 19,
          "material": 0
        }
      ]
    },
    {
      "name": "tom.mesh",
      "primitives": [
        {
          "attributes": {
            "POSITION": 20,
            "NORMAL": 21,
            "TEXCOORD_0": 22
          },
          "indices": 23,
          "material": 0
        }
      ]
    }
  ],
  "nodes": [
    {
      "matrix": [
        -1.0,
        0.0,
        0.0,
        0.0,
        0.0,
        0.0,
        1.0,
        0.0,
        0.0,
        1.0,
        0.0,
        0.0,
        0.0,
        0.0,
        0.0,
        1.0
      ],
      "name": "crash.grp"
    },
    {
      "children": [
        2
      ],
      "matrix": [
        -1.0,
        0.0,
        0.0,
        0.0,
        0.0,
        0.0,
        1.0,
        0.0,
        0.0,
        1.0,
        0.0,
        0.0,
        0.0,
        0.0,
        0.0,
        1.0
      ],
      "name": "dw_battle_drums"
    },
    {
      "children": [
        3,
        4,
        5,
        6,
        7,
        8
      ],
      "matrix": [
        0.9966621,
        -0.08003795,
        0.0,
        0.0,
        0.08003795,
        0.9966621,
        0.0,
        0.0,
        0.0,
        0.0,
        1.0,
        0.0,
        5.4312105,
        -16.430435,
        0.0,
        1.0
      ],
      "name": "animation.grp"
    },
    {
      "matrix": [
        0.9843317,
        -0.17663275,
        0.0,
        0.0,
        0.17663275,
        0.9843317,
        -0.0,
        0.0,
        0.0,
        0.0,
        1.0,
        0.0,
        -20.468168,
        48.589046,
        48.02666,
        1.0
      ],
      "mesh": 0,
      "name": "crash.mesh"
    },
    {
      "matrix": [
        0.78926915,
        0.0,
        0.0,
        0.0,
        0.0,
        0.78926915,
        0.0,
        0.0,
        0.0,
        0.0,
        0.78926915,
        0.0,
        30.939737,
        38.36955,
        0.6540837,
        1.0
      ],
      "mesh": 1,
      "name": "hat.mesh"
    },
    {
      "matrix": [
        0.78926915,
        0.0,
        0.0,
        0.0,
        0.0,
        0.78926915,
        0.0,
        0.0,
        0.0,
        0.0,
        0.78926915,
        0.0,
        31.161499,
        38.353615,
        0.0,
        1.0
      ],
      "mesh": 2,
      "name": "kick.mesh"
    },
    {
      "matrix": [
        0.78759974,
        -0.05058039,
        0.0,
        0.0,
        0.05058039,
        0.78759974,
        0.0,
        0.0,
        0.0,
        0.0,
        0.78926927,
        0.0,
        31.140095,
        34.367657,
        0.053565506,
        1.0
      ],
      "mesh": 3,
      "name": "kit.mesh"
    },
    {
      "matrix": [
        0.78926915,
        0.0,
        0.0,
        0.0,
        0.0,
        0.78926915,
        0.0,
        0.0,
        0.0,
        0.0,
        0.78926915,
        0.0,
        30.939737,
        38.36955,
        -0.9009887,
        1.0
      ],
      "mesh": 4,
      "name": "snare.mesh"
    },
    {
      "matrix": [
        0.78926915,
        0.0,
        0.0,
        0.0,
        0.0,
        0.78926915,
        0.0,
        0.0,
        0.0,
        0.0,
        0.78926915,
        0.0,
        12.863616,
        54.61857,
        36.20517,
        1.0
      ],
      "mesh": 5,
      "name": "tom.mesh"
    },
    {
      "matrix": [
        -1.0,
        0.0,
        0.0,
        0.0,
        0.0,
        0.0,
        1.0,
        0.0,
        0.0,
        1.0,
        0.0,
        0.0,
        0.0,
        0.0,
        0.0,
        1.0
      ],
      "name": "hat.grp"
    },
    {
      "matrix": [
        -1.0,
        0.0,
        0.0,
        0.0,
        0.0,
        0.0,
        1.0,
        0.0,
        0.0,
        1.0,
        0.0,
        0.0,
        0.0,
        0.0,
        0.0,
        1.0
      ],
      "name": "kick.grp"
    }
  ],
  "samplers": [
    {
      "magFilter": 9729,
      "minFilter": 9728,
      "wrapS": 10497,
      "wrapT": 10497
    }
  ],
  "scenes": [
    {
      "nodes": [
        0,
        1,
        9,
        10
      ]
    }
  ],
  "textures": [
    {
      "name": "drums_sparkle_white.tex",
      "sampler": 0,
      "source": 0
    },
    {
      "name": "drums_sparkle_white_normal.tex",
      "sampler": 0,
      "source": 1
    },
    {
      "name": "drums_sparkle_white_specular.tex",
      "sampler": 0,
      "source": 2
    }
  ]
}